<?xml version="1.0" encoding="iso-8859-1"?>
<!-- Generator: Adobe Illustrator 19.0.0, SVG Export Plug-In . SVG Version: 6.00 Build 0)  -->
<svg version="1.1" id="Capa_1" xmlns="http://www.w3.org/2000/svg" xmlns:xlink="http://www.w3.org/1999/xlink" x="0px" y="0px"
	 viewBox="0 0 512 512" style="enable-background:new 0 0 512 512;" xml:space="preserve">
<g>
	<g>
		<path d="M196,392H90v30h148.437C232.24,404.539,215.556,392,196,392z"/>
	</g>
</g>
<g>
	<g>
		<path d="M467,211h-15c0,125.759,0,174.315,0,226c0,8.291-6.709,15-15,15c-130.27,0-231.73,0-362,0c-8.291,0-15-6.709-15-15
			c0-51.29,0-99.48,0-226H45c-24.814,0-45,20.186-45,45v211c0,24.814,20.186,45,45,45h422c24.814,0,45-20.186,45-45V256
			C512,231.186,491.814,211,467,211z"/>
	</g>
</g>
<g>
	<g>
		<path d="M316,392c-19.556,0-36.24,12.539-42.437,30H422v-30H316z"/>
	</g>
</g>
<g>
	<g>
		<path d="M226,332c-8.291,0-15-6.709-15-15V181H105c-8.284,0-15,6.716-15,15c0,32.137,0,133.914,0,166h106
			c16.948,0,32.426,5.865,45,15.383V332H226z"/>
	</g>
</g>
<g>
	<g>
		<path d="M407,181H301v136c0,8.291-6.709,15-15,15h-15v45.383C283.574,367.865,299.052,362,316,362h106c0-91.3,0-72.807,0-166
			C422,187.716,415.284,181,407,181z"/>
	</g>
</g>
<g>
	<g>
		<path d="M346,90h-60c-8.401,0-15-6.599-15-15V15c0-8.401-6.599-15-15-15s-15,6.599-15,15v60c0,8.401-6.599,15-15,15h-60
			c-8.401,0-15,6.599-15,15s6.599,15,15,15h60c8.401,0,15,7.599,15,16v166h30V136c0-8.401,6.599-16,15-16h60c8.401,0,15-6.599,15-15
			S354.401,90,346,90z"/>
	</g>
</g>
<g>
</g>
<g>
</g>
<g>
</g>
<g>
</g>
<g>
</g>
<g>
</g>
<g>
</g>
<g>
</g>
<g>
</g>
<g>
</g>
<g>
</g>
<g>
</g>
<g>
</g>
<g>
</g>
<g>
</g>
</svg>
