<svg height="512" viewBox="0 0 72 72" width="512" xmlns="http://www.w3.org/2000/svg"><g id="Layer_25" data-name="Layer 25"><path d="m48 27a21 21 0 1 0 21 21 21.023 21.023 0 0 0 -21-21zm0 40a19 19 0 1 1 19-19 19.017 19.017 0 0 1 -19 19z"/><path d="m48 30a18 18 0 1 0 18 18 18.014 18.014 0 0 0 -18-18zm0 23a5 5 0 1 1 5-5 5 5 0 0 1 -5 5z"/><path d="m65 17h-5v-6a1 1 0 0 0 -1-1h-7v-6a1 1 0 0 0 -1-1h-8a1 1 0 0 0 -1 1v13h-15v-13a1 1 0 0 0 -1-1h-8a1 1 0 0 0 -1 1v6h-7a1 1 0 0 0 -1 1v6h-5a1 1 0 0 0 -1 1v6a1 1 0 0 0 1 1h5v6a1 1 0 0 0 1 1h7v6a1 1 0 0 0 1 1h8a1 1 0 0 0 1-1v-13h15v.8a22.962 22.962 0 0 1 18 2.58v-3.38h5a1 1 0 0 0 1-1v-6a1 1 0 0 0 -1-1zm-56 6h-4v-4h4zm33 0h-15v-4h15zm22 0h-4v-4h4z"/></g></svg>