<?xml version="1.0" encoding="UTF-8"?>
<svg id="Layer_1" xmlns="http://www.w3.org/2000/svg" version="1.1" viewBox="0 0 1869.56 665.76">
  <!-- Generator: Adobe Illustrator 30.6.0, SVG Export Plug-In . SVG Version: 2.1.4 Build 109)  -->
  <defs>
    <style>
      .st0 {
        fill: #bb7e3b;
      }

      .st1 {
        fill: #2e2e2e;
      }
    </style>
  </defs>
  <g>
    <path id="Coaching" class="st1" d="M1661.83,553.35s-14.76,0-14.82,0l-22.18-64.41-.77,64.41h-15.73v-107.73h15.44l21.93,61.2,1.13-61.2h15v107.73ZM1404.04,445.62h-15.84l-.81,44.63h-17.18s0-44.63,0-44.63h-16.81v107.73s16.75,0,16.75,0v-47.34s17.46.12,17.46.12v47.21s16.42,0,16.42,0v-107.73ZM980.67,535.39l.06-71.02c.01-13.57-15.88-19.43-27.23-18.41-14.02,1.26-23.31,10.04-23.23,24.08l.36,63.78c.07,12.39,12.59,19.04,24.4,19.28,11.17.22,25.63-5.35,25.64-17.71ZM955.97,539.06c-2.49-.81-6.49-3.11-8.92-5.03v-68.3c1.9-2.57,6.04-5.32,8.87-5.79,2.62-.44,9.12,3.28,9.12,6.3v66.34c0,3.18-6.71,7.25-9.07,6.48ZM1790.94,531.92c.03,3.44-6.78,7.46-9.98,6.96-3.71-.57-8.31-5.45-8.24-9.61l1.02-63.49c.07-4.1,8.83-6.61,12.06-4.95,9.37,4.82,2.83,17.17,6.71,17.71l5.29.73c2.03.28,8.31-.13,8.47-2.15l.55-6.9c1.12-14.09-7.93-22.84-21.41-24.42-12.6-1.48-28.23,5.57-28.26,20.2l-.17,65.63c-.04,13.68,10.57,21.12,23.37,21.69,10.47.47,25.54-4.79,25.8-17.45l.86-41.27-25.06.3-.28,11.63c-.05,2.18,6.81,2.36,9.11,3.06l.17,22.33ZM1111.61,553.35h15.47l-19.99-107.73h-18.78l-21.57,107.73h16.4l4.15-22.96,20.1.31,4.22,22.66ZM1089.84,516.75l7.5-41.5,7.32,40.93-14.82.57ZM1238.84,538.88c-3.59.24-8.98-4.66-8.96-8.76l.36-64.22c.02-4.12,8.81-6.74,12.16-5.15,8.59,4.08,3.46,17.28,6.58,17.57l7.04.66c1.35.13,5.26-.36,6.6-.63s.6-4.79.8-6.72c1.48-14.17-8.32-25.91-23.5-26.01-15.11-.1-26.15,8.95-26.13,24.47l.06,59.65c.01,13.88,8.98,22.66,23.14,23.44,7.28.4,15.94-1.95,20.68-6.87,4.59-4.77,6.71-13.37,5.97-20.22l-.9-8.26c-.12-1.08-14.99-1.63-14.96,1.06l.08,8.55c.05,5.95-3.45,11.06-9.02,11.44ZM814.7,538.42c-5.38-.18-8.47-4.5-8.46-10.38l.17-62.23c.01-3.87,8.46-6.52,11.76-5.06,9.12,4.05,3.61,17.06,6.58,17.43l7.04.87c2.02.25,7.6-.22,7.67-2.11l.22-6.73c.52-15.77-10.83-25.21-26.08-24.47-12.83.63-23.55,8.99-23.58,22.72l-.16,61.14c-.04,14.14,10.08,23.44,24.29,23.5,6.65.03,15.35-2.04,19.42-6.45,8.68-9.38,6.5-28.66,4.78-28.93l-6.99-1.07c-1.83-.28-7.61.35-7.6,2.2l.08,8.29c.07,7.06-3,11.46-9.16,11.26ZM1498.13,553.35h15.83v-107.73h-15.83v107.73Z"/>
    <path id="Line" class="st0" d="M1464.08,405.2l-7.14-2.89c-1.76-.71-5.78,2.4-7.76,3.28l-46.89-.35c-12.35-.09-23.35-3.23-35.76-1.92l-17.37,1.84-13.89.1-54.4.54-108.29-.14-30.14-.26-72.67.34-78.27-.6-56.2.03-106.42-.04-68.92-.98-17.55-1.68-.29-4.73-8.44-2.1c3.36-3.61,9.52-4.36,14.35-4.84,1.74-1.71,5.12-3.94,7.28-4.01l21.9-.73,70.37-1.11,99.44-1.37,57.27-.2,162.37-.23,77.17-.15,15.93.47,75.8-.86c2.24.54,2.69,1.57-.15,3.83l39.77-.16-9.91-2.92,33.86.31-10.46,1.67-.85.9,32.21.22.78-1.18-15.01-.59,1.42-2.14,21.09-.13c1.3,0,2.91,1.84,3.61,3.95l19.44-.36-7.37-4.35,42.46.51,24.25.05,25.23.6-3.8,3.1,14.24.74c3.17.17,6.18.01,8.74-.82-4.8-.35-7.01.56-9.51-2.95l52.3-.18.98,2.85c.18.52,2.01.62,2.82.63l45.27.28,102.01.57c10.73.06,20.2-4.07,32.29-.11l-10,1.79c.63-2.36.12-.46-.83,3.11l4.55,1.27,8.41-2.38c6.17-1.74,14.31-.52,21.14-.04,1.3.59,3.08,1.38,2.52,1.13l-14.68.42-.75,1.26,70.72.08.83,1.27-67.26.33-24.94-.06-3.49.82c-.5.12,1.37,1.8,2.08,1.8l32.15.17c-4.9,3.38-10.85,3.38-17.12,3.62l-17.26.66-22.58.31-22.77-2.19c-4.47-.43-8.65,1.82-13.1,1.86l-35.61.31-14.27-.16-15.22-.61c-7.35,2.39-14.48,1.94-21.79-.23-14.9,1.96-29.39,4.59-44.44,2.57-2.32-.31-7.1-2.57-9.43-2.46l-21.96.98-15.11,1.04c-10.17.7-17.95-.21-27.73,1.37l-25.65.41-13.63-.17ZM1517.55,385.39l-30.02-.32c1.74,2.33,4.58,3.14,7.28,2.84l22.74-2.52Z"/>
    <path id="Kevin_MIller" class="st1" d="M1380.64,196.78l-18.37,80.34-5.46,23.89-19.81-.14-15.8-103.74-5.26,127.01-24.15-.1,9.11-211.63h28.09l20.16,129.12,30.63-129.12h29.16l-8.58,211.56-24.52.14,4.8-127.33ZM1202.83,113.68l-24.12-.31-4.63,121.28-27.91-121.08-25.74.1-7.51,210.55,24.16-.21,5.19-126.38,28.3,126.63,25.02-.06,7.24-210.52ZM1850.64,226.18c10-5.08,16.2-14.07,16.61-24.83l2.32-61.38c-.86-14.34-11.01-27.11-26.03-27.21l-49.03-.34-8.37,211.79h25.7l3.94-94.45,11.16.07,12.66,94.38h25.55l-14.5-98.02ZM1832.64,205.27l-16.1-.07,2.9-67.83,15.86-.23c4.59-.07,8.03,3.77,8.71,8.4l-2.21,53.87c-2.15,2.6-6.49,5.87-9.15,5.86ZM778.18,204.56l32.52-92.15h-24.53l-29.23,85.53,3.11-85.53h-24.66l-8.1,211.72,24.86.06,3.55-72.8c.19-3.91,4.05-10.35,5.95-15.31l19.55,88.19,25.98-.24-8.47-33.41-20.54-86.07ZM974.23,262.97l-12.49-150.56h-25.04l21,211.87,29.32-.3,35.21-211.58h-25.44l-22.56,150.56ZM1749.35,227.29l.68-25.13-31.39-.03,2.58-63.68,36.28-.19,1.07-25.85h-61.79l-4.24,93.52-.94,19.32-4.09,98.94,63.53.03.71-25.29h-37.68s3.23-71.64,3.23-71.64h32.04ZM901.09,202.14h-31.47s2.58-63.7,2.58-63.7l36.87-.07.51-25.95h-61.86l-4.26,114.12-3.87,97.69,62.62.02,1.17-25.25-37.66-.15,2.69-71.51,32.09-.13.57-25.08ZM1532.49,299.03l8.55-186.61h-26.21l-3.62,91.67-5.2,120.11,58.26.02.33-25.24-32.1.05ZM1621.38,298.88l7.49-186.46h-25.1l-8.85,211.75,57.88.07,1.18-25.05-32.59-.31ZM1440.42,324.21h26.36s8.93-211.8,8.93-211.8h-26.36l-8.94,211.8ZM1047.4,324.2h26.31s7.71-211.78,7.71-211.78h-26.31l-7.71,211.78Z"/>
  </g>
  <g>
    <path id="KM" class="st0" d="M522.43,406.81c1.86-5.48,2.54-11.16,6.09-15.93l1.21-12.37,20.99-60.8c-.55-3.92,0-7.6,1.21-12.8l-8.4,8.74c-5.5,5.72-9.26,12.13-15.32,17.14-2.39,1.97-4.11,5.42-5.12,8.69-6.11,3.51-10.29,8.14-14.27,13.79l-9.38,13.34c-.73,1.04-3.6,1.36-4.72,1.08l-4.93,3.45c-.02-.16.16,1.34.23,1.95.1.82-1.63,2.02-2.38,2.53l-2.49,1.7c-.6.41.61,1.86,1.5,2.98l-5.64,8.72-3.9-2.06c-1.08,3.22-2.11,4.27-5.24,7l2.64,4.22-4.39,1.78c-.8.32-.63,3.19-1.13,3.94l-10.34,15.26c-4.29,6.33-7.83,12.08-12.78,18.01-2.5,3-3.05,6.88-7.54,7.34l-6.64.67-4.75,8.62c-4.41-2.57-5.99-3.27-4.46-7.74l-8.1,1.2c-4.36-1.15-6.59-4.98-5.79-9.54l-7.47-3.7c-2.89-1.43-2.07-8.88-1.5-11.99l-1.97,4.27-3.24-18.28-7.09-30.31-4.77-25.8-5.16,12.28-6.31,2.18,3.6,3.94-8.55,26.7c-1.34,4.18-3.92,8.02-6.48,11.07.73,1,1.99,2.6,1.55,3.3l-2.47,3.9-1.14,5.75c.52,2.23.66,4.88-.27,7.16l-1.43,3.49c-.33.8,2.3,2.35,2.98,2.87l1.75,1.33c.3.23.32,1.21-.05,1.13l-3.72-.8,1.98,3.35-7.47-3.39c-.06,1.29-.17,3.88-.57,5.02l-10.79,30.66-5.7,15.81-7.81,10.85c-3.6-5.46-2.1-8.36,1-14.24l-4.72,2.26,4.14-12.01c4.13.44,2.88-3.08-.18-2.76-9.14,10.61-4.55,22.23-8.58,27.26l-6.72,8.38-1.82-1.98-3.27,9.2-.14-10.88,4.66-21.4-1.18-.23-5.23,13.07-2.51-3.8c-.46-.7-3.02-1.2-3.12-.37l-.44,3.71-4.09-2.47c-.53-1.45-.11-6.32,2.46-5.82-.45-4.83-.43-6.23.45-9.59l4.48-17-2.85.44c-.8.12-1.68-2.5-1.39-3.32l12.04-34.96c.29-.12,2.95.99,2.5,1.36l-2.51,2.05c3.42,2.46,4.66,3.85,5.66,7.89.92-1.47,1.82-3.76,2.36-6.5-.65-.21,2.09-.47,2.68.16l2.93,3.15,1.9-1.89-12.78-8.12-39.96-26.77-21.35-14.99c-.74,1.37-2.98,3.98-3.66,3.5l-10.04-7.06-11.89-8.37-20.27-14.6-9.17-6.38-2.65,10.5-1.72-3.4c-.26-.51-1.39-.43-1.97-.29l-4.7,13.6-.31,9.2,1.78.27c.55.08-.08,1.57-.35,2.4l-12.44,38.08-5.59,17.27c-.22.68-3.44,1.79-3.6,1.19-.23-.89-.66-3.17-.4-4.13l2.9-10.71,3.56-.74c.49-.1-.02-2.05-.5-1.9l-2.8.86,3.52-11.85-5.21,7.19-5.19,7.11c1.17,1.37,2.85,3.83,2.47,4.77l-4.85,11.84-2.32.47,1.61-15.94c-4.35,5.19-3.67,10.55-7.57,14.24-2.67,2.53-4.48,5.01-6.31,7.92l-1.09-2.16c-.14-.29-.84.64-1.26,1.13-1.17,4.93-2.96,9.27-5.93,13.89-1.18-6.02,1.17-10.41,4.84-14.41l-2.05-2.01-3.67,8.38-1.29-1.24,6.27-22.41-5.74,9.67-5.55.63c-1.32.15-3,2.94-3.23,3.87l-1.54-9.84,5.57-17.73-2.87-2.96c.39-3,4.39-7.93,5.03-10.85l4.1-18.53,3.98-18c-5.6,4.82-3.01,11.56-9.94,15.76l6.84-21.99,4.32.86,3.28-9.03c-2.73-7.69-11.45-12.05-20.41-11.93l6.59-6.77,3.51,3.93,1.7-4.18c.4-.97-1.45-1.59-2.4-2.03,1.23-4.84,2.72-7.79,8.01-7.61,2.58-6.98,12.76-9.07,15.52-15.31l9.67-21.86,2.19,2.11c.57.55-3.87,5.09-.57,7.78l3.26-9.94,13-35.66-1.08.42-6.79,17.28-7.23,18.77-3.28-1.37,18.89-48.16,8.14-20.17,9.62-24.06,8.66-26.16-1.76-4.15c-.67-1.57,2.46-3.7,3.86-2.82l2.34-8.03c-.09.03-2.97-.45-2.79-1.06l.89-3.02c1.33-4.52,3.51-8.1,7.32-11.01l-1.13,9.43,8.79-15.19c.75-.87,4.34-2.82,4.78-1.79,1.54,3.6-.33,8.12.16,7.38.26-.4,2.16-1.29,2.63-1.2l10.17,1.91c.85.16,2.82,2.14,3.52,1.73l3.73-2.24,5.33,5.71c2.32-.35,6.96-.31,8.63,1.46,4.03,4.28,2.2,12.62.3,18.27l-5.4,16-13.45,33.65-3.58,10.34-12.4,32.49,21.6-16.19,7.01-1,23.91-16.96,2.88.96c.41.13.18-1.01.06-2.09l9.65-7.23c1.82-1.36,2.98-2.06,5.07-3.43l29.24-19.09c3.02-1.97,5.38-2.46,8.79-1.31l-12.94,8.21c-3.27,2.08-6.77,4.78-9.31,7.49l31.54-16.34c2.24-1.16,3.87-1.92,5.9-3.06l11.7-6.56-.82,4.56,6.49-2.3c.19.46.35,1.98.88,2.06l3.64.59c-2.03,2.58-3.4,4.68-5.1,7.99l-9.27,6.79,11.02-3.44c-4.42,5.42-8.28,8.4-13.3,11.82l-16.68,11.39c5.94-2.88,9.22-9.01,16.58-4.58l-5.91,2.72-6.37,7.86,2.26,2.12-22.38,13.88c-1.95,1.21-2.85,3.24-2.8,5.83l-33.59,20.98c-1.04,3.46-2.81,6.08-5.92,8.23l-37.41,25.82-14.87,11c1.5,2.2,3.75,5.29,5.83,6.8l12.97,9.38c2.98,2.15,5.21,3.99,7.71,6.62l7.2,7.58c-.02,2.77,3.83,7.64,6.61,4.77,4.21.68,8.87,5.26,12.99,8.93l12.45,10.85c9.39,8.18,20.93,15.44,31.39,23.54l.95-.97-7.56-5.7,3.97-12.32c1.28-3.98,2.21-6.93,2.73-10.95-1.62,1.85-2.29,3.12-2.79,4.18-.38.8-1.1,1.4-2.18,2.33l-4.44,6.23,4.97-15.81,5.88-18,20.63-54.32,4.3-10.89,5.33-14.84,1.07-2.74c.21-.55,2.14.11,3.07.35,1.92-5.82,3.57-10.01,8.64-15.16l.74,6.8c4.7-3.24,8.71,2,9.95.96l4.06-3.4,2.77,4.82c.47.82,3.08-.55,4.1-.83l8.02-2.21,7.01,5.04c6.34,2.66,8.39,7.14,8.89,13.8l1.04,13.96,4.55,35.43c-2.39,5.88-2.18,12.14-.22,17.86l1.42,8.03,2.29-3.11,3.77,24.79c.15,1,.42,2.55-.08,3.02l-2.02,1.92c2.65,2.01,3.78,4.44,4.67,8.78l17.27-22.64,30-37.1c.92-1.14,3.7-1.61,4.75-.67l-8.4,11.54,1.58.15,23.77-29.01-1.07-.75-6.02,6.11c-.71-.78-2.01-2.84-1.49-3.4l2.33-2.52,12.73-15.35,30.15-35.71,14.76-16.8,9.16-9.45,2.39-2.32c.63-.61,2.32,1.47,3.18,1.56l6.67.73c2.75-1.85,6.95-2.35,8.75-.66,3.84,3.63,2.52,5.71.83,11.57,2.22-1.76,3.7-4.55,5.11-7.89l2.58.87c.65.22.29,2.23.06,2.99l-3.01,9.78c5.44-4.76,5.26-12.46,14.97-15.28l8.54-17.53,1.16.8-3.83,11.55,4.95.17,5.91-5.26-.48,7.75,5.05-1.3-1.95,9.44c3.26,2.84,4.18,6.09,3.65,10.2,7.21,1.41-10.17,5.85-4.06,15.71l-7.25,14.67c-.14.29-1.86,1.51-1.83,1.51s1.2.75,2.56,1.61l-6.16,12.12c-1.69,3.32-2.56,6.16-3.28,9.8-2.28,11.55-8.66,21.26-13.68,31.69l-6.12,16.48-6.11,15.75,1.73.86,3.36-3.6-5.67,18.77-2.7-5.56-11.85,37-7.92,29.16c-1.08,3.98-1.36,7.54-3.41,10.97l-10.96,39.82c-.88.31-3.55,1-3.51,1.85l.25,5.67c.28-.03-1.57.19-3.56.43l2.12-8.9c-1.71-1.06-3.11-2.38-2.84-3.31l.79-2.74c.13-.43-1.29-1.18-1.56-.82-3.41,4.61-1.25,16.38-5.37,24.42l-4.99,9.73-1.97-2.74c-.54-.76-2.31.4-4.75,1.64l4.18-26.39c-.1-2.21-1.1-2.03-1.51-.11l-4.13,12.02-1.34-3.37c-.16-.41-.51-.73-.53-.66l-3.61,9.12-4.48-8.22,5.54-32.54-6.55,12.5c.07-7,1.48-13.31,3.57-19.37l3.96-11.45c1.66-4.79,3.99-10.93,3.36-15.75-.73-5.58.39-8.73,2.21-14.09ZM524.17,270.82l-16.45,19.06c4.7-.86,13.37-12.91,16.45-19.06ZM342.94,321.99l9.15-25.53,6.14-16.03c1.24-3.24,3.25-5.7,1.99-9.18l-11.81,29.71-7.58,21.61c-2.07,5.89-4.72,11.35-5.21,17.3,3.92-5.54,5.07-11.6,7.32-17.88ZM445.14,367.95l32.86-41.79-2.22-.12-21.82,28.79c-3.16,4.17-6.72,7.77-8.82,13.12ZM341.65,399.52c-.02-6.51-5.65-7.41-9.33-10.01l-37.11-26.16-11.95-8.73-.94,1.08,21.08,16.07c1.28.98,1.97,1.93,3.47,2.85,12.27,7.57,23.04,15.83,34.79,24.89ZM240.61,371.59c-4.18-3.33-7.63-6.99-12.09-8.5l12.1,10.56c.42.36,2.53.84,2.49.34-.03-.43-.08-1.74-.02-1.61s-1.8-.56-2.48-.78ZM327.93,426.61l.14-1.96-13.34-9.35.06,1.79,13.15,9.51ZM338.83,439.71l.74-12.05-2.76,2.16c-.44.34-1.7-.59-2.27-.91l-2.19-1.23c-.35-.2-.32,1.29-.04,1.57l1.48,1.45c.4.4,1.47,1.28,1.04,1.6l-1.96,1.45,5.95,5.96ZM296.02,443.16c-2.63,4.5-4.25,9.37-4.87,14.61,1.98,1.12,2.94,1.72,3.14,1.13l1.25-3.72c1.44-4.28,2.61-7.15.48-12.02Z"/>
    <path id="Circle" class="st1" d="M659.71,353.8l1.4-24.68c3.65,7.29,1.26,14.14.74,21.02l-2.26,29.45c-3.8,21.47-9.67,41.63-16.1,62.42-3.8,12.3-8.93,23.35-15.1,35.14l3.57.56-11.27,19.33-23.72,37.12c9.97-8.88,17.22-20.53,25.27-31.9l5.86-8.29c9.83-13.89,15.63-29.8,22.72-45.27l6.05-13.2c-1.42,9.64-4.64,17.67-7.98,26.29-4.91,5.03-7.34,11.59-8.3,18.48-11.41,24.32-24.63,47.09-42.94,66.46l-27.43,29.01-27.05,22.43-6.73,6.93-18.26,11.23-11.29,6.49c-8.79,5.05-18.23,11.94-27.48,13.5-9.07,1.53-16.78,4.97-25.02,9.23-18.07,9.34-38.6,13.71-59.15,15.94l-25.68,2.78c-20.74,2.24-40.44,1.75-61.24-.04-15.17-1.3-29.12-2.72-43.83-7.03l-11.41-1.72c-18.78-5.49-36.7-12.06-53.68-21.39l-19.11-10.5-7.8-6.16-32.05-21.38c-4.75,2.73-8.45-.84-12.1-3.83-17.05-13.98-32.27-29.02-46.79-45.77l-11.49-13.25c-17.15-23.25-31.94-47.27-43.67-73.57l-6.86-18.01c-3.38-8.87-7.47-17.63-9.61-26.76l-6.71-28.66-2.28-13.41c-.42-2.48-2.59-6.93,1.65-8.39,4.96,3.23-.38,5.85,4.72,12.75,2.47,3.35,2.08,10.61,1.96,15.18l-.07,2.62c-.01.51.93.46,2.19.55l7.62,25.44c1.52-10.88-6.14-19.55-3.65-29.31-1.12-2.29-2.87-5.92-3.12-8.56l-2.93-30.21c-1.37-14.11-1.25-27.35.11-41.66,3.83-40.24,13.49-79,30.21-115.73l1.5-3.3c.41-.9-2.75-1.75-4.77-2.14l7.99-15.83,6.93-13.09c15.29-28.88,51.71-72.34,80.13-90.73-14.71,15.39-27.77,29.59-40.18,46.31-1.29,1.74-1.98,4.7-2.03,6.75-3.73,4.09-7.38,8.73-10.13,13.86-3.62,6.75-8.73,12.14-11.34,19.41,10.05-12.74,17.61-26.72,29.45-37.65l9.13-8.42c11.12-10.26,20.81-21.28,32.54-30.9,14.39-11.81,28.78-22.07,44.19-32.44-14.23,5.28-25.54,14-37.57,22.61-10.19,7.3-18.95,14.98-28.82,23.42,6.81-10.14,16.73-17.55,24.68-25.97l-1.37-1.56c-.29-.33.36-.87.99-1.36l12.64-9.8c5.21-4.04,9.55-8.33,16.63-9.73l-14.29,12.7,20.52-13.12c25.55-16.33,60-31.43,89.89-36.06l35.54-5.5c53.51-8.28,111.67,1.45,160.93,23.53,8.18,3.67,15.74,7.32,23.06,12.35l-11.95-3.17-32.74-12.11c-19.06-7.05-38.29-11.21-58.64-12.98l-12.65-1.1.2,2.21c17.38,1.75,34.4,3.04,51.36,8.12,19.01,5.7,36.51,13.84,54.42,21.84,4.56,5.08,9.6,8.45,15.44,11.71l12.49,7.36,17.7,12.87c8.01,5.82,15.63,11.69,21.63,20.13-15.08-10.42-28.19-20.71-44.06-29.48-69.08-38.16-131.09-47.52-209.11-35.3-6.54,1.03-12.87,2.1-18.39,6.3,20.63-4.41,40.23-7.36,61.39-6.69l14.08,1.17c6.02.5,10.86,1.12,15.9,4.47l-20.23.87c-37.11,1.6-73,8.33-107.6,22.29-8.35,3.37-15.84,5.98-23.22,10.86,3.78-.32,6.41-1.87,9.73-3.18l11.85-4.67c10.04-3.96,19.3-8.59,30.97-9.31l-24.63,10.12c-24.66,10.13-52.27,22.93-72.45,39.59l6.43-1.42-29.11,23.61c-6.42,5.21-12.75,10.02-17.39,16.74l9.21-6.51c-10.56,11.52-19.91,22.4-29.25,34.69l-13.81,18.17c-1.18,1.55-1.73,5.51-1.88,7.5l-13.18,27.57c-3.06,6.4-4.89,12.24-7.14,18.95l-4,11.9c-3.62,2.87-7.63,7.92-4.53,11.38l-5.54,29.58c-2.7-1.7-2.95-3.32-1.53-7.36.53.15-.91-.25-1.92-.53l-.75-8.98c-5.96,24.11-5.64,48.85-4.09,74.08,1.19,19.34,3.94,37.44,10.85,55.88-.08-7.93-2.33-14.14-3.92-22.14l2.55,2.63c.56-6.33-3.98-12.43-1.22-19.7l10.39,39.89c8.39,32.22,26.22,65.56,45.84,92.01-.78.8-2.04,1.92-1.78,2.39l1.33,2.33,4.25,7.35,12.61,14.07-10.61-17.82c10.26,11.34,19.11,21.6,30.38,31.32,14.96,12.9,29.53,25.33,46.59,35.38,14.76,8.7,28.96,16.56,44.75,23.33,40.43,17.34,83.36,22.91,127.28,20.46,26.8-1.5,51.18-7.82,76.59-16.06l11.99-2.91,17.89-9.1,29.61-16.44c2.33-1.29,5.27-1.89,7.85-1.69l17.82-14.68,10.63-8.26c18.82-14.63,34.93-31.11,50.35-49.28l-.71,4.68,7.41-5.8-17.76,28.73c-5.34,8.64-13.74,15.26-20.23,23.07-8.19,9.85-17.93,16.93-27.13,26.04,12.44-8.42,23.92-17.38,34.55-27.93l28.99-33.2c37.28-48.41,56.29-99.74,63.7-160.83ZM281.07,11.62c-14.86,1.96-30.41,5.05-44.99,12.78l44.99-12.78ZM20.02,286.17c1.05-9.81,3.62-18.69,3.83-27.7-5.16,19-7.85,37.46-8.06,56.88,2.91-9.64,3.14-19.08,4.22-29.18ZM14.46,371.71c5.36-2.89.95-7.31.8-10.04l-1.3-24.64c-.86,2.16-2.64,6.64-2.41,8.68l2.91,26.01ZM59.86,504.75l-8.34-14.93-8.39-16.52-19.78-43.51c-2.89,2.94-2.38,7.57-.99,11.37l1.23,3.35c.19.52,2.34-.05,2.58-.03l10.78,23.12c2.73,5.87,5.34,10.36,9.52,15.65.94,1.19,1.16,4.55,2.17,6.21l10.05,16.33,1.17-1.03ZM60.56,506.72l-.42.49,1.27,5.99,9.73,12.94c2.45,3.26,4.53,5.22,8.53,7.16l-5.17-7.2-13.94-19.38ZM113.52,572.42l-15.33-14.58c2.94,7.21,8.92,11.8,15.33,14.58ZM2.16,304.73l2.7.86c.45.14,1.06-1.41,1.15-1.89l12.26-61.56c-3.66,1.88-1.88,7.53-7.13,10.67-3.51,9.02-5.33,18.93-6.75,29.13-1.97,7.86-2.68,15.54-2.23,22.79ZM55,307.05c-7.33,12.72-4.42,27.11-2.76,40.38,4.44-3.43,1.83-6.98,1.92-10.2l.84-30.19Z"/>
  </g>
</svg>