<svg id="Layer_1" height="512" viewBox="0 0 512 512" width="512" xmlns="http://www.w3.org/2000/svg"><path d="m256 263.93c34.46 0 62.5-28.04 62.5-62.5s-28.04-62.5-62.5-62.5-62.5 28.04-62.5 62.5 28.04 62.5 62.5 62.5zm-37.14-71.41c4.88-4.88 12.8-4.89 17.68 0l10.08 10.07 28.84-28.81c4.88-4.87 12.8-4.87 17.68.02 4.88 4.88 4.87 12.8-.02 17.67l-37.67 37.63c-2.44 2.43-5.64 3.65-8.83 3.65s-6.39-1.22-8.83-3.65l-18.91-18.89c-4.89-4.88-4.9-12.79-.02-17.68z"/><path d="m491.92 278.54c0-20.65-7.35-40.02-20.85-55.31 1.72-7.53 2.59-15.26 2.59-23.05 0-23.52-8.12-46.54-22.87-64.81-13.28-16.46-31.43-28.51-51.59-34.37-11.13-20.15-27.19-37.21-46.73-49.56-21.78-13.77-46.97-21.04-72.84-21.04s-51.7 7.44-73.68 21.58c-9.75-3.58-19.96-5.38-30.46-5.38-36.2 0-68.33 21.72-81.99 54.72-19.75 5.97-37.52 17.91-50.57 34.09-14.73 18.27-22.85 41.27-22.85 64.78 0 46.02 30.81 86.47 74.35 99.16 4.61 17.26 14.4 32.88 28.11 44.61 16.04 13.72 36.52 21.28 57.66 21.28 8.78 0 17.85-.93 27.04-2.4 9.47 10.68 32.65 40.73 38.56 84.69 2.61 19.44 19.32 34.1 38.88 34.1 21.63 0 39.23-17.56 39.23-39.14v-.33c0-.05 0-.1 0-.15-.04-3.19 0-7.24.12-11.41 11.53 5.27 24.15 8.07 36.94 8.07 48.49 0 88.01-39.08 88.75-87.4 25.18-14.48 42.19-41.64 42.19-72.71zm-383.53-26.36c-1.13-6.81 3.47-13.25 10.28-14.38 3.68-.61 6.91-2.62 9.08-5.65s3.03-6.73 2.42-10.41c-1.14-6.82 3.47-13.25 10.28-14.38 6.81-1.14 13.25 3.47 14.38 10.28 1.7 10.27-.69 20.59-6.75 29.05-6.06 8.47-15.05 14.07-25.31 15.78-.7.11-1.39.17-2.07.17-6 0-11.3-4.34-12.31-10.46zm-8.14-47.28c2.67 6.36-.33 13.69-6.7 16.35-1.58.66-3.21.98-4.82.98-4.89 0-9.53-2.89-11.54-7.68-9.75-23.29 1.26-50.17 24.55-59.92 6.37-2.67 13.7.33 16.36 6.7 2.67 6.37-.33 13.69-6.7 16.36-10.57 4.43-15.58 16.63-11.15 27.21zm284.79-58.51c0 6.91-5.59 12.5-12.5 12.5-21.48 0-38.96-17.48-38.96-38.97 0-6.9 5.59-12.5 12.5-12.5s12.5 5.6 12.5 12.5c0 7.71 6.26 13.97 13.96 13.97 6.91 0 12.5 5.6 12.5 12.5zm59.7 138.65c-1.75 6.67-8.58 10.67-15.26 8.92-4.38-1.15-8.94-.52-12.85 1.76-3.91 2.29-6.69 5.96-7.84 10.34-1.47 5.61-6.54 9.33-12.08 9.33-1.05 0-2.12-.13-3.18-.41-6.68-1.75-10.68-8.59-8.92-15.26 2.84-10.84 9.73-19.93 19.4-25.58 9.68-5.66 20.98-7.2 31.81-4.36 6.68 1.75 10.67 8.58 8.92 15.26zm-29.17-87.65c-5.1 2.2-9.03 6.25-11.08 11.41-2.05 5.17-1.96 10.82.24 15.91 2.74 6.34-.18 13.7-6.52 16.44-1.61.69-3.3 1.02-4.95 1.02-4.84 0-9.44-2.82-11.48-7.54-4.85-11.23-5.04-23.68-.53-35.05 4.51-11.36 13.18-20.3 24.41-25.14 6.34-2.74 13.69.18 16.43 6.52 2.74 6.33-.18 13.69-6.52 16.43zm-61.2 98.26c-5.83 3.2-12.23 4.83-18.71 4.83-3.65 0-7.33-.52-10.94-1.57-6.62-1.92-10.44-8.86-8.51-15.49s8.87-10.44 15.5-8.51c3.58 1.04 7.35.63 10.62-1.17s5.65-4.76 6.69-8.34c1.93-6.63 8.87-10.44 15.5-8.51 6.62 1.92 10.43 8.86 8.51 15.49-2.91 10-9.54 18.26-18.66 23.27zm-46.13-210.47c4.13 5.53 2.99 13.37-2.55 17.49-2.24 1.68-4.86 2.49-7.46 2.49-3.81 0-7.58-1.74-10.03-5.03-2.23-2.99-5.49-4.94-9.19-5.47-3.69-.54-7.37.39-10.36 2.62-5.53 4.13-13.37 2.99-17.49-2.54-4.13-5.54-2.99-13.37 2.54-17.5 8.35-6.22 18.61-8.82 28.91-7.32s19.41 6.92 25.63 15.26zm-52.24 28.75c48.25 0 87.5 39.25 87.5 87.5s-39.25 87.5-87.5 87.5-87.5-39.25-87.5-87.5 39.25-87.5 87.5-87.5zm-106.75 36.19c-.58.08-1.16.12-1.73.12-6.14 0-11.5-4.53-12.37-10.79-.94-6.84 3.83-13.15 10.67-14.1 7.63-1.06 12.98-8.12 11.92-15.75-.95-6.84 3.83-13.15 10.67-14.1 6.83-.94 13.15 3.83 14.09 10.67 2.95 21.28-11.97 41-33.25 43.95zm8.27 126.67c10.05-2.68 20.55-1.28 29.56 3.93 9.01 5.22 15.45 13.63 18.13 23.69 1.77 6.67-2.19 13.52-8.86 15.3-1.08.29-2.17.42-3.23.42-5.53 0-10.58-3.69-12.07-9.28-.96-3.61-3.27-6.62-6.5-8.49s-6.99-2.37-10.6-1.41c-6.67 1.78-13.52-2.19-15.29-8.86-1.78-6.67 2.18-13.52 8.86-15.3zm266.27 84.12c-5.24 29.93-31.41 52.74-62.81 52.74-14.67 0-28.47-4.86-39.9-14.05-3.75-3.02-8.9-3.6-13.23-1.52-3.63 1.74-6.16 5.1-6.88 8.97-1.9 9.67-2.12 28.56-2.04 35.17v.25c0 7.8-6.38 14.14-14.23 14.14-7.09 0-13.16-5.34-14.11-12.43-5.39-40.04-22.82-69.81-35.68-87.01.08-.02.16-.04.24-.06 5.16-1.22 10.32-2.5 15.43-3.77 17.65-4.38 35.65-8.84 51.58-10.23 11.36-.99 21.67-.43 30.04 2.84 40.8 15.95 57.15 16.42 73.65 16.42h1.47.76c.42 0 .83-.03 1.25-.03.96-.01 1.92-.03 2.87-.07.49-.02.96-.07 1.45-.1.91-.06 1.83-.12 2.74-.21.42-.04.83-.1 1.25-.15.97-.11 1.94-.23 2.91-.37.35-.05.7-.12 1.05-.17.73-.12 1.46-.22 2.19-.36z"/></svg>